<?xml version="1.0" encoding="utf-8" standalone="no"?>
<!DOCTYPE svg PUBLIC "-//W3C//DTD SVG 1.1//EN"
  "http://www.w3.org/Graphics/SVG/1.1/DTD/svg11.dtd">
<svg xmlns:xlink="http://www.w3.org/1999/xlink" width="720pt" height="432pt" viewBox="0 0 720 432" xmlns="http://www.w3.org/2000/svg" version="1.1">
 <metadata>
  <rdf:RDF xmlns:dc="http://purl.org/dc/elements/1.1/" xmlns:cc="http://creativecommons.org/ns#" xmlns:rdf="http://www.w3.org/1999/02/22-rdf-syntax-ns#">
   <cc:Work>
    <dc:type rdf:resource="http://purl.org/dc/dcmitype/StillImage"/>
    <dc:date>2025-01-03T22:48:26.440924</dc:date>
    <dc:format>image/svg+xml</dc:format>
    <dc:creator>
     <cc:Agent>
      <dc:title>Matplotlib v3.10.0, https://matplotlib.org/</dc:title>
     </cc:Agent>
    </dc:creator>
   </cc:Work>
  </rdf:RDF>
 </metadata>
 <defs>
  <style type="text/css">*{stroke-linejoin: round; stroke-linecap: butt}</style>
 </defs>
 <g id="figure_1">
  <g id="patch_1">
   <path d="M 0 432 
L 720 432 
L 720 0 
L 0 0 
z
"/>
  </g>
  <g id="axes_1">
   <g id="patch_2">
    <path d="M 90 384.48 
L 648 384.48 
L 648 51.84 
L 90 51.84 
z
"/>
   </g>
   <g id="line2d_1">
    <path d="M 90 357.282595 
L 648 357.282595 
" clip-path="url(#pc9da4f8d2b)" style="fill: none; stroke-dasharray: 2.96,1.28; stroke-dashoffset: 0; stroke: #808080; stroke-width: 0.8"/>
   </g>
   <g id="line2d_2">
    <path d="M 115.363636 384.48 
L 115.363636 51.84 
" clip-path="url(#pc9da4f8d2b)" style="fill: none; stroke-dasharray: 2.96,1.28; stroke-dashoffset: 0; stroke: #808080; stroke-width: 0.8"/>
   </g>
   <g id="matplotlib.axis_1">
    <g id="xtick_1">
     <g id="line2d_3">
      <path d="M 115.363636 384.48 
L 115.363636 51.84 
" clip-path="url(#pc9da4f8d2b)" style="fill: none; stroke: #808080; stroke-opacity: 0.3; stroke-width: 0.8; stroke-linecap: square"/>
     </g>
     <g id="line2d_4">
      <defs>
       <path id="m6d06e48952" d="M 0 0 
L 0 3.5 
" style="stroke: #ffffff; stroke-width: 0.8"/>
      </defs>
      <g>
       <use xlink:href="#m6d06e48952" x="115.363636" y="384.48" style="fill: #ffffff; stroke: #ffffff; stroke-width: 0.8"/>
      </g>
     </g>
     <g id="text_1">
      <!-- 0 -->
      <g style="fill: #ffffff" transform="translate(112.182386 399.078438) scale(0.1 -0.1)">
       <defs>
        <path id="DejaVuSans-30" d="M 2034 4250 
Q 1547 4250 1301 3770 
Q 1056 3291 1056 2328 
Q 1056 1369 1301 889 
Q 1547 409 2034 409 
Q 2525 409 2770 889 
Q 3016 1369 3016 2328 
Q 3016 3291 2770 3770 
Q 2525 4250 2034 4250 
z
M 2034 4750 
Q 2819 4750 3233 4129 
Q 3647 3509 3647 2328 
Q 3647 1150 3233 529 
Q 2819 -91 2034 -91 
Q 1250 -91 836 529 
Q 422 1150 422 2328 
Q 422 3509 836 4129 
Q 1250 4750 2034 4750 
z
" transform="scale(0.015625)"/>
       </defs>
       <use xlink:href="#DejaVuSans-30"/>
      </g>
     </g>
    </g>
    <g id="xtick_2">
     <g id="line2d_5">
      <path d="M 180.398601 384.48 
L 180.398601 51.84 
" clip-path="url(#pc9da4f8d2b)" style="fill: none; stroke: #808080; stroke-opacity: 0.3; stroke-width: 0.8; stroke-linecap: square"/>
     </g>
     <g id="line2d_6">
      <g>
       <use xlink:href="#m6d06e48952" x="180.398601" y="384.48" style="fill: #ffffff; stroke: #ffffff; stroke-width: 0.8"/>
      </g>
     </g>
     <g id="text_2">
      <!-- 10 -->
      <g style="fill: #ffffff" transform="translate(174.036101 399.078438) scale(0.1 -0.1)">
       <defs>
        <path id="DejaVuSans-31" d="M 794 531 
L 1825 531 
L 1825 4091 
L 703 3866 
L 703 4441 
L 1819 4666 
L 2450 4666 
L 2450 531 
L 3481 531 
L 3481 0 
L 794 0 
L 794 531 
z
" transform="scale(0.015625)"/>
       </defs>
       <use xlink:href="#DejaVuSans-31"/>
       <use xlink:href="#DejaVuSans-30" transform="translate(63.623047 0)"/>
      </g>
     </g>
    </g>
    <g id="xtick_3">
     <g id="line2d_7">
      <path d="M 245.433566 384.48 
L 245.433566 51.84 
" clip-path="url(#pc9da4f8d2b)" style="fill: none; stroke: #808080; stroke-opacity: 0.3; stroke-width: 0.8; stroke-linecap: square"/>
     </g>
     <g id="line2d_8">
      <g>
       <use xlink:href="#m6d06e48952" x="245.433566" y="384.48" style="fill: #ffffff; stroke: #ffffff; stroke-width: 0.8"/>
      </g>
     </g>
     <g id="text_3">
      <!-- 20 -->
      <g style="fill: #ffffff" transform="translate(239.071066 399.078438) scale(0.1 -0.1)">
       <defs>
        <path id="DejaVuSans-32" d="M 1228 531 
L 3431 531 
L 3431 0 
L 469 0 
L 469 531 
Q 828 903 1448 1529 
Q 2069 2156 2228 2338 
Q 2531 2678 2651 2914 
Q 2772 3150 2772 3378 
Q 2772 3750 2511 3984 
Q 2250 4219 1831 4219 
Q 1534 4219 1204 4116 
Q 875 4013 500 3803 
L 500 4441 
Q 881 4594 1212 4672 
Q 1544 4750 1819 4750 
Q 2544 4750 2975 4387 
Q 3406 4025 3406 3419 
Q 3406 3131 3298 2873 
Q 3191 2616 2906 2266 
Q 2828 2175 2409 1742 
Q 1991 1309 1228 531 
z
" transform="scale(0.015625)"/>
       </defs>
       <use xlink:href="#DejaVuSans-32"/>
       <use xlink:href="#DejaVuSans-30" transform="translate(63.623047 0)"/>
      </g>
     </g>
    </g>
    <g id="xtick_4">
     <g id="line2d_9">
      <path d="M 310.468531 384.48 
L 310.468531 51.84 
" clip-path="url(#pc9da4f8d2b)" style="fill: none; stroke: #808080; stroke-opacity: 0.3; stroke-width: 0.8; stroke-linecap: square"/>
     </g>
     <g id="line2d_10">
      <g>
       <use xlink:href="#m6d06e48952" x="310.468531" y="384.48" style="fill: #ffffff; stroke: #ffffff; stroke-width: 0.8"/>
      </g>
     </g>
     <g id="text_4">
      <!-- 30 -->
      <g style="fill: #ffffff" transform="translate(304.106031 399.078438) scale(0.1 -0.1)">
       <defs>
        <path id="DejaVuSans-33" d="M 2597 2516 
Q 3050 2419 3304 2112 
Q 3559 1806 3559 1356 
Q 3559 666 3084 287 
Q 2609 -91 1734 -91 
Q 1441 -91 1130 -33 
Q 819 25 488 141 
L 488 750 
Q 750 597 1062 519 
Q 1375 441 1716 441 
Q 2309 441 2620 675 
Q 2931 909 2931 1356 
Q 2931 1769 2642 2001 
Q 2353 2234 1838 2234 
L 1294 2234 
L 1294 2753 
L 1863 2753 
Q 2328 2753 2575 2939 
Q 2822 3125 2822 3475 
Q 2822 3834 2567 4026 
Q 2313 4219 1838 4219 
Q 1578 4219 1281 4162 
Q 984 4106 628 3988 
L 628 4550 
Q 988 4650 1302 4700 
Q 1616 4750 1894 4750 
Q 2613 4750 3031 4423 
Q 3450 4097 3450 3541 
Q 3450 3153 3228 2886 
Q 3006 2619 2597 2516 
z
" transform="scale(0.015625)"/>
       </defs>
       <use xlink:href="#DejaVuSans-33"/>
       <use xlink:href="#DejaVuSans-30" transform="translate(63.623047 0)"/>
      </g>
     </g>
    </g>
    <g id="xtick_5">
     <g id="line2d_11">
      <path d="M 375.503497 384.48 
L 375.503497 51.84 
" clip-path="url(#pc9da4f8d2b)" style="fill: none; stroke: #808080; stroke-opacity: 0.3; stroke-width: 0.8; stroke-linecap: square"/>
     </g>
     <g id="line2d_12">
      <g>
       <use xlink:href="#m6d06e48952" x="375.503497" y="384.48" style="fill: #ffffff; stroke: #ffffff; stroke-width: 0.8"/>
      </g>
     </g>
     <g id="text_5">
      <!-- 40 -->
      <g style="fill: #ffffff" transform="translate(369.140997 399.078438) scale(0.1 -0.1)">
       <defs>
        <path id="DejaVuSans-34" d="M 2419 4116 
L 825 1625 
L 2419 1625 
L 2419 4116 
z
M 2253 4666 
L 3047 4666 
L 3047 1625 
L 3713 1625 
L 3713 1100 
L 3047 1100 
L 3047 0 
L 2419 0 
L 2419 1100 
L 313 1100 
L 313 1709 
L 2253 4666 
z
" transform="scale(0.015625)"/>
       </defs>
       <use xlink:href="#DejaVuSans-34"/>
       <use xlink:href="#DejaVuSans-30" transform="translate(63.623047 0)"/>
      </g>
     </g>
    </g>
    <g id="xtick_6">
     <g id="line2d_13">
      <path d="M 440.538462 384.48 
L 440.538462 51.84 
" clip-path="url(#pc9da4f8d2b)" style="fill: none; stroke: #808080; stroke-opacity: 0.3; stroke-width: 0.8; stroke-linecap: square"/>
     </g>
     <g id="line2d_14">
      <g>
       <use xlink:href="#m6d06e48952" x="440.538462" y="384.48" style="fill: #ffffff; stroke: #ffffff; stroke-width: 0.8"/>
      </g>
     </g>
     <g id="text_6">
      <!-- 50 -->
      <g style="fill: #ffffff" transform="translate(434.175962 399.078438) scale(0.1 -0.1)">
       <defs>
        <path id="DejaVuSans-35" d="M 691 4666 
L 3169 4666 
L 3169 4134 
L 1269 4134 
L 1269 2991 
Q 1406 3038 1543 3061 
Q 1681 3084 1819 3084 
Q 2600 3084 3056 2656 
Q 3513 2228 3513 1497 
Q 3513 744 3044 326 
Q 2575 -91 1722 -91 
Q 1428 -91 1123 -41 
Q 819 9 494 109 
L 494 744 
Q 775 591 1075 516 
Q 1375 441 1709 441 
Q 2250 441 2565 725 
Q 2881 1009 2881 1497 
Q 2881 1984 2565 2268 
Q 2250 2553 1709 2553 
Q 1456 2553 1204 2497 
Q 953 2441 691 2322 
L 691 4666 
z
" transform="scale(0.015625)"/>
       </defs>
       <use xlink:href="#DejaVuSans-35"/>
       <use xlink:href="#DejaVuSans-30" transform="translate(63.623047 0)"/>
      </g>
     </g>
    </g>
    <g id="xtick_7">
     <g id="line2d_15">
      <path d="M 505.573427 384.48 
L 505.573427 51.84 
" clip-path="url(#pc9da4f8d2b)" style="fill: none; stroke: #808080; stroke-opacity: 0.3; stroke-width: 0.8; stroke-linecap: square"/>
     </g>
     <g id="line2d_16">
      <g>
       <use xlink:href="#m6d06e48952" x="505.573427" y="384.48" style="fill: #ffffff; stroke: #ffffff; stroke-width: 0.8"/>
      </g>
     </g>
     <g id="text_7">
      <!-- 60 -->
      <g style="fill: #ffffff" transform="translate(499.210927 399.078438) scale(0.1 -0.1)">
       <defs>
        <path id="DejaVuSans-36" d="M 2113 2584 
Q 1688 2584 1439 2293 
Q 1191 2003 1191 1497 
Q 1191 994 1439 701 
Q 1688 409 2113 409 
Q 2538 409 2786 701 
Q 3034 994 3034 1497 
Q 3034 2003 2786 2293 
Q 2538 2584 2113 2584 
z
M 3366 4563 
L 3366 3988 
Q 3128 4100 2886 4159 
Q 2644 4219 2406 4219 
Q 1781 4219 1451 3797 
Q 1122 3375 1075 2522 
Q 1259 2794 1537 2939 
Q 1816 3084 2150 3084 
Q 2853 3084 3261 2657 
Q 3669 2231 3669 1497 
Q 3669 778 3244 343 
Q 2819 -91 2113 -91 
Q 1303 -91 875 529 
Q 447 1150 447 2328 
Q 447 3434 972 4092 
Q 1497 4750 2381 4750 
Q 2619 4750 2861 4703 
Q 3103 4656 3366 4563 
z
" transform="scale(0.015625)"/>
       </defs>
       <use xlink:href="#DejaVuSans-36"/>
       <use xlink:href="#DejaVuSans-30" transform="translate(63.623047 0)"/>
      </g>
     </g>
    </g>
    <g id="xtick_8">
     <g id="line2d_17">
      <path d="M 570.608392 384.48 
L 570.608392 51.84 
" clip-path="url(#pc9da4f8d2b)" style="fill: none; stroke: #808080; stroke-opacity: 0.3; stroke-width: 0.8; stroke-linecap: square"/>
     </g>
     <g id="line2d_18">
      <g>
       <use xlink:href="#m6d06e48952" x="570.608392" y="384.48" style="fill: #ffffff; stroke: #ffffff; stroke-width: 0.8"/>
      </g>
     </g>
     <g id="text_8">
      <!-- 70 -->
      <g style="fill: #ffffff" transform="translate(564.245892 399.078438) scale(0.1 -0.1)">
       <defs>
        <path id="DejaVuSans-37" d="M 525 4666 
L 3525 4666 
L 3525 4397 
L 1831 0 
L 1172 0 
L 2766 4134 
L 525 4134 
L 525 4666 
z
" transform="scale(0.015625)"/>
       </defs>
       <use xlink:href="#DejaVuSans-37"/>
       <use xlink:href="#DejaVuSans-30" transform="translate(63.623047 0)"/>
      </g>
     </g>
    </g>
    <g id="xtick_9">
     <g id="line2d_19">
      <path d="M 635.643357 384.48 
L 635.643357 51.84 
" clip-path="url(#pc9da4f8d2b)" style="fill: none; stroke: #808080; stroke-opacity: 0.3; stroke-width: 0.8; stroke-linecap: square"/>
     </g>
     <g id="line2d_20">
      <g>
       <use xlink:href="#m6d06e48952" x="635.643357" y="384.48" style="fill: #ffffff; stroke: #ffffff; stroke-width: 0.8"/>
      </g>
     </g>
     <g id="text_9">
      <!-- 80 -->
      <g style="fill: #ffffff" transform="translate(629.280857 399.078438) scale(0.1 -0.1)">
       <defs>
        <path id="DejaVuSans-38" d="M 2034 2216 
Q 1584 2216 1326 1975 
Q 1069 1734 1069 1313 
Q 1069 891 1326 650 
Q 1584 409 2034 409 
Q 2484 409 2743 651 
Q 3003 894 3003 1313 
Q 3003 1734 2745 1975 
Q 2488 2216 2034 2216 
z
M 1403 2484 
Q 997 2584 770 2862 
Q 544 3141 544 3541 
Q 544 4100 942 4425 
Q 1341 4750 2034 4750 
Q 2731 4750 3128 4425 
Q 3525 4100 3525 3541 
Q 3525 3141 3298 2862 
Q 3072 2584 2669 2484 
Q 3125 2378 3379 2068 
Q 3634 1759 3634 1313 
Q 3634 634 3220 271 
Q 2806 -91 2034 -91 
Q 1263 -91 848 271 
Q 434 634 434 1313 
Q 434 1759 690 2068 
Q 947 2378 1403 2484 
z
M 1172 3481 
Q 1172 3119 1398 2916 
Q 1625 2713 2034 2713 
Q 2441 2713 2670 2916 
Q 2900 3119 2900 3481 
Q 2900 3844 2670 4047 
Q 2441 4250 2034 4250 
Q 1625 4250 1398 4047 
Q 1172 3844 1172 3481 
z
" transform="scale(0.015625)"/>
       </defs>
       <use xlink:href="#DejaVuSans-38"/>
       <use xlink:href="#DejaVuSans-30" transform="translate(63.623047 0)"/>
      </g>
     </g>
    </g>
    <g id="text_10">
     <!-- $x$ -->
     <g style="fill: #ffffff" transform="translate(364.8 415.870313) scale(0.14 -0.14)">
      <defs>
       <path id="DejaVuSans-Oblique-78" d="M 3841 3500 
L 2234 1784 
L 3219 0 
L 2559 0 
L 1819 1388 
L 531 0 
L -166 0 
L 1556 1844 
L 641 3500 
L 1300 3500 
L 1972 2234 
L 3144 3500 
L 3841 3500 
z
" transform="scale(0.015625)"/>
      </defs>
      <use xlink:href="#DejaVuSans-Oblique-78" transform="translate(0 0.3125)"/>
     </g>
    </g>
   </g>
   <g id="matplotlib.axis_2">
    <g id="ytick_1">
     <g id="line2d_21">
      <path d="M 90 357.282595 
L 648 357.282595 
" clip-path="url(#pc9da4f8d2b)" style="fill: none; stroke: #808080; stroke-opacity: 0.3; stroke-width: 0.8; stroke-linecap: square"/>
     </g>
     <g id="line2d_22">
      <defs>
       <path id="m695bcc3ae3" d="M 0 0 
L -3.5 0 
" style="stroke: #ffffff; stroke-width: 0.8"/>
      </defs>
      <g>
       <use xlink:href="#m695bcc3ae3" x="90" y="357.282595" style="fill: #ffffff; stroke: #ffffff; stroke-width: 0.8"/>
      </g>
     </g>
     <g id="text_11">
      <!-- 0 -->
      <g style="fill: #ffffff" transform="translate(76.6375 361.081814) scale(0.1 -0.1)">
       <use xlink:href="#DejaVuSans-30"/>
      </g>
     </g>
    </g>
    <g id="ytick_2">
     <g id="line2d_23">
      <path d="M 90 318.962722 
L 648 318.962722 
" clip-path="url(#pc9da4f8d2b)" style="fill: none; stroke: #808080; stroke-opacity: 0.3; stroke-width: 0.8; stroke-linecap: square"/>
     </g>
     <g id="line2d_24">
      <g>
       <use xlink:href="#m695bcc3ae3" x="90" y="318.962722" style="fill: #ffffff; stroke: #ffffff; stroke-width: 0.8"/>
      </g>
     </g>
     <g id="text_12">
      <!-- 1 -->
      <g style="fill: #ffffff" transform="translate(76.6375 322.761941) scale(0.1 -0.1)">
       <use xlink:href="#DejaVuSans-31"/>
      </g>
     </g>
    </g>
    <g id="ytick_3">
     <g id="line2d_25">
      <path d="M 90 280.642849 
L 648 280.642849 
" clip-path="url(#pc9da4f8d2b)" style="fill: none; stroke: #808080; stroke-opacity: 0.3; stroke-width: 0.8; stroke-linecap: square"/>
     </g>
     <g id="line2d_26">
      <g>
       <use xlink:href="#m695bcc3ae3" x="90" y="280.642849" style="fill: #ffffff; stroke: #ffffff; stroke-width: 0.8"/>
      </g>
     </g>
     <g id="text_13">
      <!-- 2 -->
      <g style="fill: #ffffff" transform="translate(76.6375 284.442068) scale(0.1 -0.1)">
       <use xlink:href="#DejaVuSans-32"/>
      </g>
     </g>
    </g>
    <g id="ytick_4">
     <g id="line2d_27">
      <path d="M 90 242.322976 
L 648 242.322976 
" clip-path="url(#pc9da4f8d2b)" style="fill: none; stroke: #808080; stroke-opacity: 0.3; stroke-width: 0.8; stroke-linecap: square"/>
     </g>
     <g id="line2d_28">
      <g>
       <use xlink:href="#m695bcc3ae3" x="90" y="242.322976" style="fill: #ffffff; stroke: #ffffff; stroke-width: 0.8"/>
      </g>
     </g>
     <g id="text_14">
      <!-- 3 -->
      <g style="fill: #ffffff" transform="translate(76.6375 246.122194) scale(0.1 -0.1)">
       <use xlink:href="#DejaVuSans-33"/>
      </g>
     </g>
    </g>
    <g id="ytick_5">
     <g id="line2d_29">
      <path d="M 90 204.003102 
L 648 204.003102 
" clip-path="url(#pc9da4f8d2b)" style="fill: none; stroke: #808080; stroke-opacity: 0.3; stroke-width: 0.8; stroke-linecap: square"/>
     </g>
     <g id="line2d_30">
      <g>
       <use xlink:href="#m695bcc3ae3" x="90" y="204.003102" style="fill: #ffffff; stroke: #ffffff; stroke-width: 0.8"/>
      </g>
     </g>
     <g id="text_15">
      <!-- 4 -->
      <g style="fill: #ffffff" transform="translate(76.6375 207.802321) scale(0.1 -0.1)">
       <use xlink:href="#DejaVuSans-34"/>
      </g>
     </g>
    </g>
    <g id="ytick_6">
     <g id="line2d_31">
      <path d="M 90 165.683229 
L 648 165.683229 
" clip-path="url(#pc9da4f8d2b)" style="fill: none; stroke: #808080; stroke-opacity: 0.3; stroke-width: 0.8; stroke-linecap: square"/>
     </g>
     <g id="line2d_32">
      <g>
       <use xlink:href="#m695bcc3ae3" x="90" y="165.683229" style="fill: #ffffff; stroke: #ffffff; stroke-width: 0.8"/>
      </g>
     </g>
     <g id="text_16">
      <!-- 5 -->
      <g style="fill: #ffffff" transform="translate(76.6375 169.482448) scale(0.1 -0.1)">
       <use xlink:href="#DejaVuSans-35"/>
      </g>
     </g>
    </g>
    <g id="ytick_7">
     <g id="line2d_33">
      <path d="M 90 127.363356 
L 648 127.363356 
" clip-path="url(#pc9da4f8d2b)" style="fill: none; stroke: #808080; stroke-opacity: 0.3; stroke-width: 0.8; stroke-linecap: square"/>
     </g>
     <g id="line2d_34">
      <g>
       <use xlink:href="#m695bcc3ae3" x="90" y="127.363356" style="fill: #ffffff; stroke: #ffffff; stroke-width: 0.8"/>
      </g>
     </g>
     <g id="text_17">
      <!-- 6 -->
      <g style="fill: #ffffff" transform="translate(76.6375 131.162574) scale(0.1 -0.1)">
       <use xlink:href="#DejaVuSans-36"/>
      </g>
     </g>
    </g>
    <g id="ytick_8">
     <g id="line2d_35">
      <path d="M 90 89.043482 
L 648 89.043482 
" clip-path="url(#pc9da4f8d2b)" style="fill: none; stroke: #808080; stroke-opacity: 0.3; stroke-width: 0.8; stroke-linecap: square"/>
     </g>
     <g id="line2d_36">
      <g>
       <use xlink:href="#m695bcc3ae3" x="90" y="89.043482" style="fill: #ffffff; stroke: #ffffff; stroke-width: 0.8"/>
      </g>
     </g>
     <g id="text_18">
      <!-- 7 -->
      <g style="fill: #ffffff" transform="translate(76.6375 92.842701) scale(0.1 -0.1)">
       <use xlink:href="#DejaVuSans-37"/>
      </g>
     </g>
    </g>
    <g id="text_19">
     <!-- $f(x)$ -->
     <g style="fill: #ffffff" transform="translate(69.725938 230.27) rotate(-90) scale(0.14 -0.14)">
      <defs>
       <path id="DejaVuSans-Oblique-66" d="M 3059 4863 
L 2969 4384 
L 2419 4384 
Q 2106 4384 1964 4261 
Q 1822 4138 1753 3809 
L 1691 3500 
L 2638 3500 
L 2553 3053 
L 1606 3053 
L 1013 0 
L 434 0 
L 1031 3053 
L 481 3053 
L 563 3500 
L 1113 3500 
L 1159 3744 
Q 1278 4363 1576 4613 
Q 1875 4863 2516 4863 
L 3059 4863 
z
" transform="scale(0.015625)"/>
       <path id="DejaVuSans-28" d="M 1984 4856 
Q 1566 4138 1362 3434 
Q 1159 2731 1159 2009 
Q 1159 1288 1364 580 
Q 1569 -128 1984 -844 
L 1484 -844 
Q 1016 -109 783 600 
Q 550 1309 550 2009 
Q 550 2706 781 3412 
Q 1013 4119 1484 4856 
L 1984 4856 
z
" transform="scale(0.015625)"/>
       <path id="DejaVuSans-29" d="M 513 4856 
L 1013 4856 
Q 1481 4119 1714 3412 
Q 1947 2706 1947 2009 
Q 1947 1309 1714 600 
Q 1481 -109 1013 -844 
L 513 -844 
Q 928 -128 1133 580 
Q 1338 1288 1338 2009 
Q 1338 2731 1133 3434 
Q 928 4138 513 4856 
z
" transform="scale(0.015625)"/>
      </defs>
      <use xlink:href="#DejaVuSans-Oblique-66" transform="translate(0 0.015625)"/>
      <use xlink:href="#DejaVuSans-28" transform="translate(35.205078 0.015625)"/>
      <use xlink:href="#DejaVuSans-Oblique-78" transform="translate(74.21875 0.015625)"/>
      <use xlink:href="#DejaVuSans-29" transform="translate(133.398438 0.015625)"/>
     </g>
    </g>
   </g>
   <g id="line2d_37">
    <path d="M 115.363636 215.710212 
L 115.871417 209.554432 
L 116.379197 205.141707 
L 116.886978 202.583497 
L 117.394758 201.945257 
L 117.902539 203.244941 
L 118.410319 206.452749 
L 118.9181 211.49214 
L 119.42588 218.242061 
L 120.441441 236.188103 
L 121.964783 270.80775 
L 124.503686 330.81056 
L 125.519247 349.357302 
L 126.534808 362.294263 
L 127.042588 366.348743 
L 127.550369 368.708292 
L 128.058149 369.36 
L 128.56593 368.331096 
L 129.07371 365.686939 
L 129.581491 361.528016 
L 130.089271 355.986054 
L 131.104832 341.407691 
L 132.628174 313.699267 
L 135.167076 265.327924 
L 136.182637 249.130538 
L 137.198198 235.959287 
L 138.213759 226.037216 
L 139.22932 219.177819 
L 139.737101 216.745359 
L 140.244881 214.865524 
L 140.752662 213.441549 
L 141.768223 211.553866 
L 144.307125 208.117963 
L 145.322686 205.915811 
L 146.338247 203.018689 
L 148.87715 194.884284 
L 149.38493 193.669831 
L 149.892711 192.785745 
L 150.400491 192.311668 
L 150.908272 192.319591 
L 151.416052 192.870826 
L 151.923833 194.01337 
L 152.431613 195.779762 
L 152.939394 198.185514 
L 153.954955 204.886891 
L 154.970516 213.880818 
L 156.493857 230.509761 
L 159.540541 265.396129 
L 160.556102 274.593554 
L 161.571663 281.621731 
L 162.079443 284.246169 
L 162.587224 286.271789 
L 163.095004 287.715698 
L 163.602785 288.610857 
L 164.110565 289.004375 
L 164.618346 288.9553 
L 165.126126 288.532008 
L 165.633907 287.809254 
L 166.649468 285.77729 
L 168.68059 281.372335 
L 169.696151 279.822106 
L 170.711712 278.888649 
L 173.250614 277.408004 
L 173.758395 276.700629 
L 174.266175 275.646133 
L 174.773956 274.148371 
L 175.281736 272.114282 
L 175.789517 269.457386 
L 176.297297 266.101138 
L 177.312858 257.052397 
L 178.328419 244.663147 
L 179.34398 228.942571 
L 180.867322 199.976086 
L 185.437346 103.744909 
L 186.452907 87.889225 
L 187.468468 76.189113 
L 187.976249 72.070647 
L 188.484029 69.156471 
L 188.99181 67.456689 
L 189.49959 66.96 
L 190.007371 67.634754 
L 190.515152 69.430535 
L 191.022932 72.280216 
L 191.530713 76.102418 
L 192.546274 86.284413 
L 193.561835 99.150228 
L 195.085176 121.606037 
L 200.162981 199.215706 
L 208.79525 321.156056 
L 209.810811 332.62956 
L 210.826372 341.729624 
L 211.334152 345.194462 
L 211.841933 347.845013 
L 212.349713 349.625191 
L 212.857494 350.490763 
L 213.365274 350.410876 
L 213.873055 349.369242 
L 214.380835 347.364957 
L 214.888616 344.41293 
L 215.396396 340.543903 
L 216.411957 330.254351 
L 217.427518 317.035134 
L 218.95086 293.34869 
L 222.505324 235.686788 
L 223.520885 222.356405 
L 224.536446 211.524856 
L 225.552007 203.461687 
L 226.059787 200.49007 
L 226.567568 198.208949 
L 227.075348 196.590022 
L 227.583129 195.593249 
L 228.090909 195.168137 
L 228.59869 195.2552 
L 229.10647 195.787574 
L 229.614251 196.692742 
L 230.629812 199.313976 
L 233.168714 207.025566 
L 234.184275 209.170641 
L 234.692056 209.845954 
L 235.199836 210.22016 
L 235.707617 210.280013 
L 236.215397 210.023854 
L 236.723178 209.461668 
L 237.230958 208.614898 
L 238.246519 206.207805 
L 241.293202 197.388427 
L 241.800983 196.437869 
L 242.308763 195.840738 
L 242.816544 195.669068 
L 243.324324 195.988663 
L 243.832105 196.857091 
L 244.339885 198.321799 
L 244.847666 200.418363 
L 245.355446 203.168943 
L 246.371007 210.646204 
L 247.386568 220.620677 
L 248.90991 239.324873 
L 252.464373 286.059053 
L 253.479934 295.540385 
L 253.987715 299.002148 
L 254.495495 301.479631 
L 255.003276 302.896624 
L 255.511057 303.198312 
L 256.018837 302.353603 
L 256.526618 300.356961 
L 257.034398 297.229663 
L 257.542179 293.020435 
L 258.55774 281.687328 
L 259.573301 267.276871 
L 263.127764 213.100366 
L 264.143325 203.195791 
L 264.651106 200.083628 
L 265.158886 198.369754 
L 265.666667 198.145109 
L 266.174447 199.466522 
L 266.682228 202.354331 
L 267.190008 206.790891 
L 267.697789 212.720025 
L 268.71335 228.642319 
L 269.728911 248.942967 
L 273.283374 327.91406 
L 274.298935 344.208745 
L 274.806716 350.159191 
L 275.314496 354.432492 
L 275.822277 356.917285 
L 276.330057 357.544868 
L 276.837838 356.291476 
L 277.345618 353.179417 
L 277.853399 348.277009 
L 278.361179 341.697321 
L 279.37674 324.166274 
L 280.900082 290.328868 
L 282.931204 242.896261 
L 283.946765 223.454306 
L 284.962326 209.554432 
L 285.470106 205.141707 
L 285.977887 202.583497 
L 286.485667 201.945257 
L 286.993448 203.244941 
L 287.501229 206.452749 
L 288.009009 211.49214 
L 288.51679 218.242061 
L 289.532351 236.188103 
L 291.055692 270.80775 
L 293.594595 330.81056 
L 294.610156 349.357302 
L 295.625717 362.294263 
L 296.133497 366.348743 
L 296.641278 368.708292 
L 297.149058 369.36 
L 297.656839 368.331096 
L 298.164619 365.686939 
L 298.6724 361.528016 
L 299.18018 355.986054 
L 300.195741 341.407691 
L 301.719083 313.699267 
L 304.257985 265.327924 
L 305.273546 249.130538 
L 306.289107 235.959287 
L 307.304668 226.037216 
L 308.320229 219.177819 
L 308.82801 216.745359 
L 309.33579 214.865524 
L 309.843571 213.441549 
L 310.859132 211.553866 
L 313.398034 208.117963 
L 314.413595 205.915811 
L 315.429156 203.018689 
L 317.968059 194.884284 
L 318.475839 193.669831 
L 318.98362 192.785745 
L 319.4914 192.311668 
L 319.999181 192.319591 
L 320.506962 192.870826 
L 321.014742 194.01337 
L 321.522523 195.779762 
L 322.030303 198.185514 
L 323.045864 204.886891 
L 324.061425 213.880818 
L 325.584767 230.509761 
L 328.63145 265.396129 
L 329.647011 274.593554 
L 330.662572 281.621731 
L 331.170352 284.246169 
L 331.678133 286.271789 
L 332.185913 287.715698 
L 332.693694 288.610857 
L 333.201474 289.004375 
L 333.709255 288.9553 
L 334.217035 288.532008 
L 334.724816 287.809254 
L 335.740377 285.77729 
L 337.771499 281.372335 
L 338.78706 279.822106 
L 339.802621 278.888649 
L 342.341523 277.408004 
L 342.849304 276.700629 
L 343.357084 275.646133 
L 343.864865 274.148371 
L 344.372645 272.114282 
L 344.880426 269.457386 
L 345.388206 266.101138 
L 346.403767 257.052397 
L 347.419328 244.663147 
L 348.434889 228.942571 
L 349.958231 199.976086 
L 354.528256 103.744909 
L 355.543817 87.889225 
L 356.559378 76.189113 
L 357.067158 72.070647 
L 357.574939 69.156471 
L 358.082719 67.456689 
L 358.5905 66.96 
L 359.09828 67.634754 
L 359.606061 69.430535 
L 360.113841 72.280216 
L 360.621622 76.102418 
L 361.637183 86.284413 
L 362.652744 99.150228 
L 364.176085 121.606037 
L 369.25389 199.215706 
L 377.886159 321.156056 
L 378.90172 332.62956 
L 379.917281 341.729624 
L 380.425061 345.194462 
L 380.932842 347.845013 
L 381.440622 349.625191 
L 381.948403 350.490763 
L 382.456183 350.410876 
L 382.963964 349.369242 
L 383.471744 347.364957 
L 383.979525 344.41293 
L 384.487305 340.543903 
L 385.502867 330.254351 
L 386.518428 317.035134 
L 388.041769 293.34869 
L 391.596233 235.686788 
L 392.611794 222.356405 
L 393.627355 211.524856 
L 394.642916 203.461687 
L 395.150696 200.49007 
L 395.658477 198.208949 
L 396.166257 196.590022 
L 396.674038 195.593249 
L 397.181818 195.168137 
L 397.689599 195.2552 
L 398.197379 195.787574 
L 398.70516 196.692742 
L 399.720721 199.313976 
L 402.259623 207.025566 
L 403.275184 209.170641 
L 403.782965 209.845954 
L 404.290745 210.22016 
L 404.798526 210.280013 
L 405.306306 210.023854 
L 405.814087 209.461668 
L 406.321867 208.614898 
L 407.337428 206.207805 
L 410.384111 197.388427 
L 410.891892 196.437869 
L 411.399672 195.840738 
L 411.907453 195.669068 
L 412.415233 195.988663 
L 412.923014 196.857091 
L 413.430794 198.321799 
L 413.938575 200.418363 
L 414.446355 203.168943 
L 415.461916 210.646204 
L 416.477477 220.620677 
L 418.000819 239.324873 
L 421.555283 286.059053 
L 422.570844 295.540385 
L 423.078624 299.002148 
L 423.586405 301.479631 
L 424.094185 302.896624 
L 424.601966 303.198312 
L 425.109746 302.353603 
L 425.617527 300.356961 
L 426.125307 297.229663 
L 426.633088 293.020435 
L 427.648649 281.687328 
L 428.66421 267.276871 
L 432.218673 213.100366 
L 433.234234 203.195791 
L 433.742015 200.083628 
L 434.249795 198.369754 
L 434.757576 198.145109 
L 435.265356 199.466522 
L 435.773137 202.354331 
L 436.280917 206.790891 
L 436.788698 212.720025 
L 437.804259 228.642319 
L 438.81982 248.942967 
L 442.374283 327.91406 
L 443.389844 344.208745 
L 443.897625 350.159191 
L 444.405405 354.432492 
L 444.913186 356.917285 
L 445.420966 357.544868 
L 445.928747 356.291476 
L 446.436527 353.179417 
L 446.944308 348.277009 
L 447.452088 341.697321 
L 448.467649 324.166274 
L 449.990991 290.328868 
L 452.022113 242.896261 
L 453.037674 223.454306 
L 454.053235 209.554432 
L 454.561016 205.141707 
L 455.068796 202.583497 
L 455.576577 201.945257 
L 456.084357 203.244941 
L 456.592138 206.452749 
L 457.099918 211.49214 
L 457.607699 218.242061 
L 458.62326 236.188103 
L 460.146601 270.80775 
L 462.685504 330.81056 
L 463.701065 349.357302 
L 464.716626 362.294263 
L 465.224406 366.348743 
L 465.732187 368.708292 
L 466.239967 369.36 
L 466.747748 368.331096 
L 467.255528 365.686939 
L 467.763309 361.528016 
L 468.271089 355.986054 
L 469.28665 341.407691 
L 470.809992 313.699267 
L 473.348894 265.327924 
L 474.364455 249.130538 
L 475.380016 235.959287 
L 476.395577 226.037216 
L 477.411138 219.177819 
L 477.918919 216.745359 
L 478.426699 214.865524 
L 478.93448 213.441549 
L 479.950041 211.553866 
L 482.488943 208.117963 
L 483.504505 205.915811 
L 484.520066 203.018689 
L 487.058968 194.884284 
L 487.566749 193.669831 
L 488.074529 192.785745 
L 488.58231 192.311668 
L 489.09009 192.319591 
L 489.597871 192.870826 
L 490.105651 194.01337 
L 490.613432 195.779762 
L 491.121212 198.185514 
L 492.136773 204.886891 
L 493.152334 213.880818 
L 494.675676 230.509761 
L 497.722359 265.396129 
L 498.73792 274.593554 
L 499.753481 281.621731 
L 500.261261 284.246169 
L 500.769042 286.271789 
L 501.276822 287.715698 
L 501.784603 288.610857 
L 502.292383 289.004375 
L 502.800164 288.9553 
L 503.307944 288.532008 
L 503.815725 287.809254 
L 504.831286 285.77729 
L 506.862408 281.372335 
L 507.877969 279.822106 
L 508.89353 278.888649 
L 511.432432 277.408004 
L 511.940213 276.700629 
L 512.447993 275.646133 
L 512.955774 274.148371 
L 513.463554 272.114282 
L 513.971335 269.457386 
L 514.479115 266.101138 
L 515.494676 257.052397 
L 516.510238 244.663147 
L 517.525799 228.942571 
L 519.04914 199.976086 
L 523.619165 103.744909 
L 524.634726 87.889225 
L 525.650287 76.189113 
L 526.158067 72.070647 
L 526.665848 69.156471 
L 527.173628 67.456689 
L 527.681409 66.96 
L 528.189189 67.634754 
L 528.69697 69.430535 
L 529.20475 72.280216 
L 529.712531 76.102418 
L 530.728092 86.284413 
L 531.743653 99.150228 
L 533.266994 121.606037 
L 538.344799 199.215706 
L 546.977068 321.156056 
L 547.992629 332.62956 
L 549.00819 341.729624 
L 549.515971 345.194462 
L 550.023751 347.845013 
L 550.531532 349.625191 
L 551.039312 350.490763 
L 551.547093 350.410876 
L 552.054873 349.369242 
L 552.562654 347.364957 
L 553.070434 344.41293 
L 553.578215 340.543903 
L 554.593776 330.254351 
L 555.609337 317.035134 
L 557.132678 293.34869 
L 560.687142 235.686788 
L 561.702703 222.356405 
L 562.718264 211.524856 
L 563.733825 203.461687 
L 564.241605 200.49007 
L 564.749386 198.208949 
L 565.257166 196.590022 
L 565.764947 195.593249 
L 566.272727 195.168137 
L 566.780508 195.2552 
L 567.288288 195.787574 
L 567.796069 196.692742 
L 568.81163 199.313976 
L 571.350532 207.025566 
L 572.366093 209.170641 
L 572.873874 209.845954 
L 573.381654 210.22016 
L 573.889435 210.280013 
L 574.397215 210.023854 
L 574.904996 209.461668 
L 575.412776 208.614898 
L 576.428337 206.207805 
L 579.47502 197.388427 
L 579.982801 196.437869 
L 580.490581 195.840738 
L 580.998362 195.669068 
L 581.506143 195.988663 
L 582.013923 196.857091 
L 582.521704 198.321799 
L 583.029484 200.418363 
L 583.537265 203.168943 
L 584.552826 210.646204 
L 585.568387 220.620677 
L 587.091728 239.324873 
L 590.646192 286.059053 
L 591.661753 295.540385 
L 592.169533 299.002148 
L 592.677314 301.479631 
L 593.185094 302.896624 
L 593.692875 303.198312 
L 594.200655 302.353603 
L 594.708436 300.356961 
L 595.216216 297.229663 
L 595.723997 293.020435 
L 596.739558 281.687328 
L 597.755119 267.276871 
L 601.309582 213.100366 
L 602.325143 203.195791 
L 602.832924 200.083628 
L 603.340704 198.369754 
L 603.848485 198.145109 
L 604.356265 199.466522 
L 604.864046 202.354331 
L 605.371826 206.790891 
L 605.879607 212.720025 
L 606.895168 228.642319 
L 607.910729 248.942967 
L 611.465192 327.91406 
L 612.480753 344.208745 
L 612.988534 350.159191 
L 613.496314 354.432492 
L 614.004095 356.917285 
L 614.511876 357.544868 
L 615.019656 356.291476 
L 615.527437 353.179417 
L 616.035217 348.277009 
L 616.542998 341.697321 
L 617.558559 324.166274 
L 619.0819 290.328868 
L 621.113022 242.896261 
L 622.128583 223.454306 
L 622.636364 215.710212 
L 622.636364 215.710212 
" clip-path="url(#pc9da4f8d2b)" style="fill: none; stroke: #ffffff; stroke-width: 3; stroke-linecap: square"/>
   </g>
   <g id="patch_3">
    <path d="M 90 384.48 
L 90 51.84 
" style="fill: none; stroke: #ffffff; stroke-width: 0.8; stroke-linejoin: miter; stroke-linecap: square"/>
   </g>
   <g id="patch_4">
    <path d="M 648 384.48 
L 648 51.84 
" style="fill: none; stroke: #ffffff; stroke-width: 0.8; stroke-linejoin: miter; stroke-linecap: square"/>
   </g>
   <g id="patch_5">
    <path d="M 90 384.48 
L 648 384.48 
" style="fill: none; stroke: #ffffff; stroke-width: 0.8; stroke-linejoin: miter; stroke-linecap: square"/>
   </g>
   <g id="patch_6">
    <path d="M 90 51.84 
L 648 51.84 
" style="fill: none; stroke: #ffffff; stroke-width: 0.8; stroke-linejoin: miter; stroke-linecap: square"/>
   </g>
   <g id="PathCollection_1">
    <defs>
     <path id="m81d36d7246" d="M 0 3 
C 0.795609 3 1.55874 2.683901 2.12132 2.12132 
C 2.683901 1.55874 3 0.795609 3 0 
C 3 -0.795609 2.683901 -1.55874 2.12132 -2.12132 
C 1.55874 -2.683901 0.795609 -3 0 -3 
C -0.795609 -3 -1.55874 -2.683901 -2.12132 -2.12132 
C -2.683901 -1.55874 -3 -0.795609 -3 0 
C -3 0.795609 -2.683901 1.55874 -2.12132 2.12132 
C -1.55874 2.683901 -0.795609 3 0 3 
z
" style="stroke: #00ffff"/>
    </defs>
    <g clip-path="url(#pc9da4f8d2b)">
     <use xlink:href="#m81d36d7246" x="115.363636" y="204.003102" style="fill: #00ffff; stroke: #00ffff"/>
     <use xlink:href="#m81d36d7246" x="121.867133" y="280.642849" style="fill: #00ffff; stroke: #00ffff"/>
     <use xlink:href="#m81d36d7246" x="128.370629" y="357.282595" style="fill: #00ffff; stroke: #00ffff"/>
     <use xlink:href="#m81d36d7246" x="134.874126" y="280.642849" style="fill: #00ffff; stroke: #00ffff"/>
     <use xlink:href="#m81d36d7246" x="141.377622" y="204.003102" style="fill: #00ffff; stroke: #00ffff"/>
     <use xlink:href="#m81d36d7246" x="147.881119" y="204.003102" style="fill: #00ffff; stroke: #00ffff"/>
     <use xlink:href="#m81d36d7246" x="154.384615" y="204.003102" style="fill: #00ffff; stroke: #00ffff"/>
     <use xlink:href="#m81d36d7246" x="160.888112" y="280.642849" style="fill: #00ffff; stroke: #00ffff"/>
     <use xlink:href="#m81d36d7246" x="167.391608" y="280.642849" style="fill: #00ffff; stroke: #00ffff"/>
     <use xlink:href="#m81d36d7246" x="173.895105" y="280.642849" style="fill: #00ffff; stroke: #00ffff"/>
     <use xlink:href="#m81d36d7246" x="180.398601" y="204.003102" style="fill: #00ffff; stroke: #00ffff"/>
     <use xlink:href="#m81d36d7246" x="186.902098" y="89.043482" style="fill: #00ffff; stroke: #00ffff"/>
     <use xlink:href="#m81d36d7246" x="193.405594" y="89.043482" style="fill: #00ffff; stroke: #00ffff"/>
     <use xlink:href="#m81d36d7246" x="199.909091" y="204.003102" style="fill: #00ffff; stroke: #00ffff"/>
     <use xlink:href="#m81d36d7246" x="206.412587" y="280.642849" style="fill: #00ffff; stroke: #00ffff"/>
     <use xlink:href="#m81d36d7246" x="212.916084" y="357.282595" style="fill: #00ffff; stroke: #00ffff"/>
     <use xlink:href="#m81d36d7246" x="219.41958" y="280.642849" style="fill: #00ffff; stroke: #00ffff"/>
     <use xlink:href="#m81d36d7246" x="225.923077" y="204.003102" style="fill: #00ffff; stroke: #00ffff"/>
     <use xlink:href="#m81d36d7246" x="232.426573" y="204.003102" style="fill: #00ffff; stroke: #00ffff"/>
     <use xlink:href="#m81d36d7246" x="238.93007" y="204.003102" style="fill: #00ffff; stroke: #00ffff"/>
     <use xlink:href="#m81d36d7246" x="245.433566" y="204.003102" style="fill: #00ffff; stroke: #00ffff"/>
     <use xlink:href="#m81d36d7246" x="251.937063" y="280.642849" style="fill: #00ffff; stroke: #00ffff"/>
     <use xlink:href="#m81d36d7246" x="258.440559" y="280.642849" style="fill: #00ffff; stroke: #00ffff"/>
     <use xlink:href="#m81d36d7246" x="264.944056" y="204.003102" style="fill: #00ffff; stroke: #00ffff"/>
     <use xlink:href="#m81d36d7246" x="271.447552" y="280.642849" style="fill: #00ffff; stroke: #00ffff"/>
     <use xlink:href="#m81d36d7246" x="277.951049" y="357.282595" style="fill: #00ffff; stroke: #00ffff"/>
     <use xlink:href="#m81d36d7246" x="284.454545" y="204.003102" style="fill: #00ffff; stroke: #00ffff"/>
     <use xlink:href="#m81d36d7246" x="290.958042" y="280.642849" style="fill: #00ffff; stroke: #00ffff"/>
     <use xlink:href="#m81d36d7246" x="297.461538" y="357.282595" style="fill: #00ffff; stroke: #00ffff"/>
     <use xlink:href="#m81d36d7246" x="303.965035" y="280.642849" style="fill: #00ffff; stroke: #00ffff"/>
     <use xlink:href="#m81d36d7246" x="310.468531" y="204.003102" style="fill: #00ffff; stroke: #00ffff"/>
     <use xlink:href="#m81d36d7246" x="316.972028" y="204.003102" style="fill: #00ffff; stroke: #00ffff"/>
     <use xlink:href="#m81d36d7246" x="323.475524" y="204.003102" style="fill: #00ffff; stroke: #00ffff"/>
     <use xlink:href="#m81d36d7246" x="329.979021" y="280.642849" style="fill: #00ffff; stroke: #00ffff"/>
     <use xlink:href="#m81d36d7246" x="336.482517" y="280.642849" style="fill: #00ffff; stroke: #00ffff"/>
     <use xlink:href="#m81d36d7246" x="342.986014" y="280.642849" style="fill: #00ffff; stroke: #00ffff"/>
     <use xlink:href="#m81d36d7246" x="349.48951" y="204.003102" style="fill: #00ffff; stroke: #00ffff"/>
     <use xlink:href="#m81d36d7246" x="355.993007" y="89.043482" style="fill: #00ffff; stroke: #00ffff"/>
     <use xlink:href="#m81d36d7246" x="362.496503" y="89.043482" style="fill: #00ffff; stroke: #00ffff"/>
     <use xlink:href="#m81d36d7246" x="369" y="204.003102" style="fill: #00ffff; stroke: #00ffff"/>
     <use xlink:href="#m81d36d7246" x="375.503497" y="280.642849" style="fill: #00ffff; stroke: #00ffff"/>
     <use xlink:href="#m81d36d7246" x="382.006993" y="357.282595" style="fill: #00ffff; stroke: #00ffff"/>
     <use xlink:href="#m81d36d7246" x="388.51049" y="280.642849" style="fill: #00ffff; stroke: #00ffff"/>
     <use xlink:href="#m81d36d7246" x="395.013986" y="204.003102" style="fill: #00ffff; stroke: #00ffff"/>
     <use xlink:href="#m81d36d7246" x="401.517483" y="204.003102" style="fill: #00ffff; stroke: #00ffff"/>
     <use xlink:href="#m81d36d7246" x="408.020979" y="204.003102" style="fill: #00ffff; stroke: #00ffff"/>
     <use xlink:href="#m81d36d7246" x="414.524476" y="204.003102" style="fill: #00ffff; stroke: #00ffff"/>
     <use xlink:href="#m81d36d7246" x="421.027972" y="280.642849" style="fill: #00ffff; stroke: #00ffff"/>
     <use xlink:href="#m81d36d7246" x="427.531469" y="280.642849" style="fill: #00ffff; stroke: #00ffff"/>
     <use xlink:href="#m81d36d7246" x="434.034965" y="204.003102" style="fill: #00ffff; stroke: #00ffff"/>
     <use xlink:href="#m81d36d7246" x="440.538462" y="280.642849" style="fill: #00ffff; stroke: #00ffff"/>
     <use xlink:href="#m81d36d7246" x="447.041958" y="357.282595" style="fill: #00ffff; stroke: #00ffff"/>
     <use xlink:href="#m81d36d7246" x="453.545455" y="204.003102" style="fill: #00ffff; stroke: #00ffff"/>
     <use xlink:href="#m81d36d7246" x="460.048951" y="280.642849" style="fill: #00ffff; stroke: #00ffff"/>
     <use xlink:href="#m81d36d7246" x="466.552448" y="357.282595" style="fill: #00ffff; stroke: #00ffff"/>
     <use xlink:href="#m81d36d7246" x="473.055944" y="280.642849" style="fill: #00ffff; stroke: #00ffff"/>
     <use xlink:href="#m81d36d7246" x="479.559441" y="204.003102" style="fill: #00ffff; stroke: #00ffff"/>
     <use xlink:href="#m81d36d7246" x="486.062937" y="204.003102" style="fill: #00ffff; stroke: #00ffff"/>
     <use xlink:href="#m81d36d7246" x="492.566434" y="204.003102" style="fill: #00ffff; stroke: #00ffff"/>
     <use xlink:href="#m81d36d7246" x="499.06993" y="280.642849" style="fill: #00ffff; stroke: #00ffff"/>
     <use xlink:href="#m81d36d7246" x="505.573427" y="280.642849" style="fill: #00ffff; stroke: #00ffff"/>
     <use xlink:href="#m81d36d7246" x="512.076923" y="280.642849" style="fill: #00ffff; stroke: #00ffff"/>
     <use xlink:href="#m81d36d7246" x="518.58042" y="204.003102" style="fill: #00ffff; stroke: #00ffff"/>
     <use xlink:href="#m81d36d7246" x="525.083916" y="89.043482" style="fill: #00ffff; stroke: #00ffff"/>
     <use xlink:href="#m81d36d7246" x="531.587413" y="89.043482" style="fill: #00ffff; stroke: #00ffff"/>
     <use xlink:href="#m81d36d7246" x="538.090909" y="204.003102" style="fill: #00ffff; stroke: #00ffff"/>
     <use xlink:href="#m81d36d7246" x="544.594406" y="280.642849" style="fill: #00ffff; stroke: #00ffff"/>
     <use xlink:href="#m81d36d7246" x="551.097902" y="357.282595" style="fill: #00ffff; stroke: #00ffff"/>
     <use xlink:href="#m81d36d7246" x="557.601399" y="280.642849" style="fill: #00ffff; stroke: #00ffff"/>
     <use xlink:href="#m81d36d7246" x="564.104895" y="204.003102" style="fill: #00ffff; stroke: #00ffff"/>
     <use xlink:href="#m81d36d7246" x="570.608392" y="204.003102" style="fill: #00ffff; stroke: #00ffff"/>
     <use xlink:href="#m81d36d7246" x="577.111888" y="204.003102" style="fill: #00ffff; stroke: #00ffff"/>
     <use xlink:href="#m81d36d7246" x="583.615385" y="204.003102" style="fill: #00ffff; stroke: #00ffff"/>
     <use xlink:href="#m81d36d7246" x="590.118881" y="280.642849" style="fill: #00ffff; stroke: #00ffff"/>
     <use xlink:href="#m81d36d7246" x="596.622378" y="280.642849" style="fill: #00ffff; stroke: #00ffff"/>
     <use xlink:href="#m81d36d7246" x="603.125874" y="204.003102" style="fill: #00ffff; stroke: #00ffff"/>
     <use xlink:href="#m81d36d7246" x="609.629371" y="280.642849" style="fill: #00ffff; stroke: #00ffff"/>
     <use xlink:href="#m81d36d7246" x="616.132867" y="357.282595" style="fill: #00ffff; stroke: #00ffff"/>
    </g>
   </g>
   <g id="legend_1">
    <g id="patch_7">
     <path d="M 444.55875 96.6675 
L 639.6 96.6675 
Q 642 96.6675 642 94.2675 
L 642 60.24 
Q 642 57.84 639.6 57.84 
L 444.55875 57.84 
Q 442.15875 57.84 442.15875 60.24 
L 442.15875 94.2675 
Q 442.15875 96.6675 444.55875 96.6675 
z
" style="opacity: 0.8; stroke: #cccccc; stroke-linejoin: miter"/>
    </g>
    <g id="PathCollection_2">
     <g>
      <use xlink:href="#m81d36d7246" x="458.95875" y="68.608125" style="fill: #00ffff; stroke: #00ffff"/>
     </g>
    </g>
    <g id="text_20">
     <!-- Original Melody (Discrete) -->
     <g style="fill: #ffffff" transform="translate(480.55875 71.758125) scale(0.12 -0.12)">
      <defs>
       <path id="DejaVuSans-4f" d="M 2522 4238 
Q 1834 4238 1429 3725 
Q 1025 3213 1025 2328 
Q 1025 1447 1429 934 
Q 1834 422 2522 422 
Q 3209 422 3611 934 
Q 4013 1447 4013 2328 
Q 4013 3213 3611 3725 
Q 3209 4238 2522 4238 
z
M 2522 4750 
Q 3503 4750 4090 4092 
Q 4678 3434 4678 2328 
Q 4678 1225 4090 567 
Q 3503 -91 2522 -91 
Q 1538 -91 948 565 
Q 359 1222 359 2328 
Q 359 3434 948 4092 
Q 1538 4750 2522 4750 
z
" transform="scale(0.015625)"/>
       <path id="DejaVuSans-72" d="M 2631 2963 
Q 2534 3019 2420 3045 
Q 2306 3072 2169 3072 
Q 1681 3072 1420 2755 
Q 1159 2438 1159 1844 
L 1159 0 
L 581 0 
L 581 3500 
L 1159 3500 
L 1159 2956 
Q 1341 3275 1631 3429 
Q 1922 3584 2338 3584 
Q 2397 3584 2469 3576 
Q 2541 3569 2628 3553 
L 2631 2963 
z
" transform="scale(0.015625)"/>
       <path id="DejaVuSans-69" d="M 603 3500 
L 1178 3500 
L 1178 0 
L 603 0 
L 603 3500 
z
M 603 4863 
L 1178 4863 
L 1178 4134 
L 603 4134 
L 603 4863 
z
" transform="scale(0.015625)"/>
       <path id="DejaVuSans-67" d="M 2906 1791 
Q 2906 2416 2648 2759 
Q 2391 3103 1925 3103 
Q 1463 3103 1205 2759 
Q 947 2416 947 1791 
Q 947 1169 1205 825 
Q 1463 481 1925 481 
Q 2391 481 2648 825 
Q 2906 1169 2906 1791 
z
M 3481 434 
Q 3481 -459 3084 -895 
Q 2688 -1331 1869 -1331 
Q 1566 -1331 1297 -1286 
Q 1028 -1241 775 -1147 
L 775 -588 
Q 1028 -725 1275 -790 
Q 1522 -856 1778 -856 
Q 2344 -856 2625 -561 
Q 2906 -266 2906 331 
L 2906 616 
Q 2728 306 2450 153 
Q 2172 0 1784 0 
Q 1141 0 747 490 
Q 353 981 353 1791 
Q 353 2603 747 3093 
Q 1141 3584 1784 3584 
Q 2172 3584 2450 3431 
Q 2728 3278 2906 2969 
L 2906 3500 
L 3481 3500 
L 3481 434 
z
" transform="scale(0.015625)"/>
       <path id="DejaVuSans-6e" d="M 3513 2113 
L 3513 0 
L 2938 0 
L 2938 2094 
Q 2938 2591 2744 2837 
Q 2550 3084 2163 3084 
Q 1697 3084 1428 2787 
Q 1159 2491 1159 1978 
L 1159 0 
L 581 0 
L 581 3500 
L 1159 3500 
L 1159 2956 
Q 1366 3272 1645 3428 
Q 1925 3584 2291 3584 
Q 2894 3584 3203 3211 
Q 3513 2838 3513 2113 
z
" transform="scale(0.015625)"/>
       <path id="DejaVuSans-61" d="M 2194 1759 
Q 1497 1759 1228 1600 
Q 959 1441 959 1056 
Q 959 750 1161 570 
Q 1363 391 1709 391 
Q 2188 391 2477 730 
Q 2766 1069 2766 1631 
L 2766 1759 
L 2194 1759 
z
M 3341 1997 
L 3341 0 
L 2766 0 
L 2766 531 
Q 2569 213 2275 61 
Q 1981 -91 1556 -91 
Q 1019 -91 701 211 
Q 384 513 384 1019 
Q 384 1609 779 1909 
Q 1175 2209 1959 2209 
L 2766 2209 
L 2766 2266 
Q 2766 2663 2505 2880 
Q 2244 3097 1772 3097 
Q 1472 3097 1187 3025 
Q 903 2953 641 2809 
L 641 3341 
Q 956 3463 1253 3523 
Q 1550 3584 1831 3584 
Q 2591 3584 2966 3190 
Q 3341 2797 3341 1997 
z
" transform="scale(0.015625)"/>
       <path id="DejaVuSans-6c" d="M 603 4863 
L 1178 4863 
L 1178 0 
L 603 0 
L 603 4863 
z
" transform="scale(0.015625)"/>
       <path id="DejaVuSans-20" transform="scale(0.015625)"/>
       <path id="DejaVuSans-4d" d="M 628 4666 
L 1569 4666 
L 2759 1491 
L 3956 4666 
L 4897 4666 
L 4897 0 
L 4281 0 
L 4281 4097 
L 3078 897 
L 2444 897 
L 1241 4097 
L 1241 0 
L 628 0 
L 628 4666 
z
" transform="scale(0.015625)"/>
       <path id="DejaVuSans-65" d="M 3597 1894 
L 3597 1613 
L 953 1613 
Q 991 1019 1311 708 
Q 1631 397 2203 397 
Q 2534 397 2845 478 
Q 3156 559 3463 722 
L 3463 178 
Q 3153 47 2828 -22 
Q 2503 -91 2169 -91 
Q 1331 -91 842 396 
Q 353 884 353 1716 
Q 353 2575 817 3079 
Q 1281 3584 2069 3584 
Q 2775 3584 3186 3129 
Q 3597 2675 3597 1894 
z
M 3022 2063 
Q 3016 2534 2758 2815 
Q 2500 3097 2075 3097 
Q 1594 3097 1305 2825 
Q 1016 2553 972 2059 
L 3022 2063 
z
" transform="scale(0.015625)"/>
       <path id="DejaVuSans-6f" d="M 1959 3097 
Q 1497 3097 1228 2736 
Q 959 2375 959 1747 
Q 959 1119 1226 758 
Q 1494 397 1959 397 
Q 2419 397 2687 759 
Q 2956 1122 2956 1747 
Q 2956 2369 2687 2733 
Q 2419 3097 1959 3097 
z
M 1959 3584 
Q 2709 3584 3137 3096 
Q 3566 2609 3566 1747 
Q 3566 888 3137 398 
Q 2709 -91 1959 -91 
Q 1206 -91 779 398 
Q 353 888 353 1747 
Q 353 2609 779 3096 
Q 1206 3584 1959 3584 
z
" transform="scale(0.015625)"/>
       <path id="DejaVuSans-64" d="M 2906 2969 
L 2906 4863 
L 3481 4863 
L 3481 0 
L 2906 0 
L 2906 525 
Q 2725 213 2448 61 
Q 2172 -91 1784 -91 
Q 1150 -91 751 415 
Q 353 922 353 1747 
Q 353 2572 751 3078 
Q 1150 3584 1784 3584 
Q 2172 3584 2448 3432 
Q 2725 3281 2906 2969 
z
M 947 1747 
Q 947 1113 1208 752 
Q 1469 391 1925 391 
Q 2381 391 2643 752 
Q 2906 1113 2906 1747 
Q 2906 2381 2643 2742 
Q 2381 3103 1925 3103 
Q 1469 3103 1208 2742 
Q 947 2381 947 1747 
z
" transform="scale(0.015625)"/>
       <path id="DejaVuSans-79" d="M 2059 -325 
Q 1816 -950 1584 -1140 
Q 1353 -1331 966 -1331 
L 506 -1331 
L 506 -850 
L 844 -850 
Q 1081 -850 1212 -737 
Q 1344 -625 1503 -206 
L 1606 56 
L 191 3500 
L 800 3500 
L 1894 763 
L 2988 3500 
L 3597 3500 
L 2059 -325 
z
" transform="scale(0.015625)"/>
       <path id="DejaVuSans-44" d="M 1259 4147 
L 1259 519 
L 2022 519 
Q 2988 519 3436 956 
Q 3884 1394 3884 2338 
Q 3884 3275 3436 3711 
Q 2988 4147 2022 4147 
L 1259 4147 
z
M 628 4666 
L 1925 4666 
Q 3281 4666 3915 4102 
Q 4550 3538 4550 2338 
Q 4550 1131 3912 565 
Q 3275 0 1925 0 
L 628 0 
L 628 4666 
z
" transform="scale(0.015625)"/>
       <path id="DejaVuSans-73" d="M 2834 3397 
L 2834 2853 
Q 2591 2978 2328 3040 
Q 2066 3103 1784 3103 
Q 1356 3103 1142 2972 
Q 928 2841 928 2578 
Q 928 2378 1081 2264 
Q 1234 2150 1697 2047 
L 1894 2003 
Q 2506 1872 2764 1633 
Q 3022 1394 3022 966 
Q 3022 478 2636 193 
Q 2250 -91 1575 -91 
Q 1294 -91 989 -36 
Q 684 19 347 128 
L 347 722 
Q 666 556 975 473 
Q 1284 391 1588 391 
Q 1994 391 2212 530 
Q 2431 669 2431 922 
Q 2431 1156 2273 1281 
Q 2116 1406 1581 1522 
L 1381 1569 
Q 847 1681 609 1914 
Q 372 2147 372 2553 
Q 372 3047 722 3315 
Q 1072 3584 1716 3584 
Q 2034 3584 2315 3537 
Q 2597 3491 2834 3397 
z
" transform="scale(0.015625)"/>
       <path id="DejaVuSans-63" d="M 3122 3366 
L 3122 2828 
Q 2878 2963 2633 3030 
Q 2388 3097 2138 3097 
Q 1578 3097 1268 2742 
Q 959 2388 959 1747 
Q 959 1106 1268 751 
Q 1578 397 2138 397 
Q 2388 397 2633 464 
Q 2878 531 3122 666 
L 3122 134 
Q 2881 22 2623 -34 
Q 2366 -91 2075 -91 
Q 1284 -91 818 406 
Q 353 903 353 1747 
Q 353 2603 823 3093 
Q 1294 3584 2113 3584 
Q 2378 3584 2631 3529 
Q 2884 3475 3122 3366 
z
" transform="scale(0.015625)"/>
       <path id="DejaVuSans-74" d="M 1172 4494 
L 1172 3500 
L 2356 3500 
L 2356 3053 
L 1172 3053 
L 1172 1153 
Q 1172 725 1289 603 
Q 1406 481 1766 481 
L 2356 481 
L 2356 0 
L 1766 0 
Q 1100 0 847 248 
Q 594 497 594 1153 
L 594 3053 
L 172 3053 
L 172 3500 
L 594 3500 
L 594 4494 
L 1172 4494 
z
" transform="scale(0.015625)"/>
      </defs>
      <use xlink:href="#DejaVuSans-4f"/>
      <use xlink:href="#DejaVuSans-72" transform="translate(78.710938 0)"/>
      <use xlink:href="#DejaVuSans-69" transform="translate(119.824219 0)"/>
      <use xlink:href="#DejaVuSans-67" transform="translate(147.607422 0)"/>
      <use xlink:href="#DejaVuSans-69" transform="translate(211.083984 0)"/>
      <use xlink:href="#DejaVuSans-6e" transform="translate(238.867188 0)"/>
      <use xlink:href="#DejaVuSans-61" transform="translate(302.246094 0)"/>
      <use xlink:href="#DejaVuSans-6c" transform="translate(363.525391 0)"/>
      <use xlink:href="#DejaVuSans-20" transform="translate(391.308594 0)"/>
      <use xlink:href="#DejaVuSans-4d" transform="translate(423.095703 0)"/>
      <use xlink:href="#DejaVuSans-65" transform="translate(509.375 0)"/>
      <use xlink:href="#DejaVuSans-6c" transform="translate(570.898438 0)"/>
      <use xlink:href="#DejaVuSans-6f" transform="translate(598.681641 0)"/>
      <use xlink:href="#DejaVuSans-64" transform="translate(659.863281 0)"/>
      <use xlink:href="#DejaVuSans-79" transform="translate(723.339844 0)"/>
      <use xlink:href="#DejaVuSans-20" transform="translate(782.519531 0)"/>
      <use xlink:href="#DejaVuSans-28" transform="translate(814.306641 0)"/>
      <use xlink:href="#DejaVuSans-44" transform="translate(853.320312 0)"/>
      <use xlink:href="#DejaVuSans-69" transform="translate(930.322266 0)"/>
      <use xlink:href="#DejaVuSans-73" transform="translate(958.105469 0)"/>
      <use xlink:href="#DejaVuSans-63" transform="translate(1010.205078 0)"/>
      <use xlink:href="#DejaVuSans-72" transform="translate(1065.185547 0)"/>
      <use xlink:href="#DejaVuSans-65" transform="translate(1104.048828 0)"/>
      <use xlink:href="#DejaVuSans-74" transform="translate(1165.572266 0)"/>
      <use xlink:href="#DejaVuSans-65" transform="translate(1204.78125 0)"/>
      <use xlink:href="#DejaVuSans-29" transform="translate(1266.304688 0)"/>
     </g>
    </g>
    <g id="line2d_38">
     <path d="M 446.95875 85.171875 
L 458.95875 85.171875 
L 470.95875 85.171875 
" style="fill: none; stroke: #ffffff; stroke-width: 3; stroke-linecap: square"/>
    </g>
    <g id="text_21">
     <!-- Fourier Approximation -->
     <g style="fill: #ffffff" transform="translate(480.55875 89.371875) scale(0.12 -0.12)">
      <defs>
       <path id="DejaVuSans-46" d="M 628 4666 
L 3309 4666 
L 3309 4134 
L 1259 4134 
L 1259 2759 
L 3109 2759 
L 3109 2228 
L 1259 2228 
L 1259 0 
L 628 0 
L 628 4666 
z
" transform="scale(0.015625)"/>
       <path id="DejaVuSans-75" d="M 544 1381 
L 544 3500 
L 1119 3500 
L 1119 1403 
Q 1119 906 1312 657 
Q 1506 409 1894 409 
Q 2359 409 2629 706 
Q 2900 1003 2900 1516 
L 2900 3500 
L 3475 3500 
L 3475 0 
L 2900 0 
L 2900 538 
Q 2691 219 2414 64 
Q 2138 -91 1772 -91 
Q 1169 -91 856 284 
Q 544 659 544 1381 
z
M 1991 3584 
L 1991 3584 
z
" transform="scale(0.015625)"/>
       <path id="DejaVuSans-41" d="M 2188 4044 
L 1331 1722 
L 3047 1722 
L 2188 4044 
z
M 1831 4666 
L 2547 4666 
L 4325 0 
L 3669 0 
L 3244 1197 
L 1141 1197 
L 716 0 
L 50 0 
L 1831 4666 
z
" transform="scale(0.015625)"/>
       <path id="DejaVuSans-70" d="M 1159 525 
L 1159 -1331 
L 581 -1331 
L 581 3500 
L 1159 3500 
L 1159 2969 
Q 1341 3281 1617 3432 
Q 1894 3584 2278 3584 
Q 2916 3584 3314 3078 
Q 3713 2572 3713 1747 
Q 3713 922 3314 415 
Q 2916 -91 2278 -91 
Q 1894 -91 1617 61 
Q 1341 213 1159 525 
z
M 3116 1747 
Q 3116 2381 2855 2742 
Q 2594 3103 2138 3103 
Q 1681 3103 1420 2742 
Q 1159 2381 1159 1747 
Q 1159 1113 1420 752 
Q 1681 391 2138 391 
Q 2594 391 2855 752 
Q 3116 1113 3116 1747 
z
" transform="scale(0.015625)"/>
       <path id="DejaVuSans-78" d="M 3513 3500 
L 2247 1797 
L 3578 0 
L 2900 0 
L 1881 1375 
L 863 0 
L 184 0 
L 1544 1831 
L 300 3500 
L 978 3500 
L 1906 2253 
L 2834 3500 
L 3513 3500 
z
" transform="scale(0.015625)"/>
       <path id="DejaVuSans-6d" d="M 3328 2828 
Q 3544 3216 3844 3400 
Q 4144 3584 4550 3584 
Q 5097 3584 5394 3201 
Q 5691 2819 5691 2113 
L 5691 0 
L 5113 0 
L 5113 2094 
Q 5113 2597 4934 2840 
Q 4756 3084 4391 3084 
Q 3944 3084 3684 2787 
Q 3425 2491 3425 1978 
L 3425 0 
L 2847 0 
L 2847 2094 
Q 2847 2600 2669 2842 
Q 2491 3084 2119 3084 
Q 1678 3084 1418 2786 
Q 1159 2488 1159 1978 
L 1159 0 
L 581 0 
L 581 3500 
L 1159 3500 
L 1159 2956 
Q 1356 3278 1631 3431 
Q 1906 3584 2284 3584 
Q 2666 3584 2933 3390 
Q 3200 3197 3328 2828 
z
" transform="scale(0.015625)"/>
      </defs>
      <use xlink:href="#DejaVuSans-46"/>
      <use xlink:href="#DejaVuSans-6f" transform="translate(53.894531 0)"/>
      <use xlink:href="#DejaVuSans-75" transform="translate(115.076172 0)"/>
      <use xlink:href="#DejaVuSans-72" transform="translate(178.455078 0)"/>
      <use xlink:href="#DejaVuSans-69" transform="translate(219.568359 0)"/>
      <use xlink:href="#DejaVuSans-65" transform="translate(247.351562 0)"/>
      <use xlink:href="#DejaVuSans-72" transform="translate(308.875 0)"/>
      <use xlink:href="#DejaVuSans-20" transform="translate(349.988281 0)"/>
      <use xlink:href="#DejaVuSans-41" transform="translate(381.775391 0)"/>
      <use xlink:href="#DejaVuSans-70" transform="translate(450.183594 0)"/>
      <use xlink:href="#DejaVuSans-70" transform="translate(513.660156 0)"/>
      <use xlink:href="#DejaVuSans-72" transform="translate(577.136719 0)"/>
      <use xlink:href="#DejaVuSans-6f" transform="translate(616 0)"/>
      <use xlink:href="#DejaVuSans-78" transform="translate(674.056641 0)"/>
      <use xlink:href="#DejaVuSans-69" transform="translate(733.236328 0)"/>
      <use xlink:href="#DejaVuSans-6d" transform="translate(761.019531 0)"/>
      <use xlink:href="#DejaVuSans-61" transform="translate(858.431641 0)"/>
      <use xlink:href="#DejaVuSans-74" transform="translate(919.710938 0)"/>
      <use xlink:href="#DejaVuSans-69" transform="translate(958.919922 0)"/>
      <use xlink:href="#DejaVuSans-6f" transform="translate(986.703125 0)"/>
      <use xlink:href="#DejaVuSans-6e" transform="translate(1047.884766 0)"/>
     </g>
    </g>
   </g>
  </g>
 </g>
 <defs>
  <clipPath id="pc9da4f8d2b">
   <rect x="90" y="51.84" width="558" height="332.64"/>
  </clipPath>
 </defs>
</svg>
